<svg version="1.2" xmlns="http://www.w3.org/2000/svg" viewBox="0 0 439 446" width="439" height="446">
	<style>
		.s0 { fill: #bfe3cf } 
	</style>
	<path id="Veredalogo" class="s0" d="m186.66 174.58c-1.52 2.12-3.03 4.24-5.13 7.17 2.93 0.69 5.16 1.21 7.39 1.72q-0.23 0.26-0.47 0.51c2.18 1.43 4.35 2.85 6.8 4.47q-3.9 7.34-8.65 16.18c-0.44 1.05-0.56 1.59-0.89 3.05 1.07-1.12 1.47-1.54 1.87-1.96q3.94-3.73 7.88-7.46 0.45 0.28 0.9 0.55-6.02 13.21-12.04 26.41 0.83 0.4 1.65 0.79c3.01-5.82 6.02-11.64 9.45-17.41 0.59 0.28 0.77 0.51 0.94 0.74q-3.35 12.05-6.71 24.11 0.96 0.26 1.92 0.52 2.85-10.25 5.71-20.5 0.36 0.03 0.72 0.06c0 1.97-0.03 3.95 0.01 5.92 0.16 7.11 0.45 14.22 0.49 21.33 0.05 9.83-0.05 19.66-0.14 29.5-0.05 4.99-0.24 9.99-0.37 14.98-0.66 26.29-1.13 52.58-2.08 78.85-0.62 17.4-1.46 34.81-3.19 52.12-0.64 6.32-3.57 12.62-6.45 18.44-2.59 5.21-11.61 7.81-18.23 5.89-41.34-12.04-77.51-32.7-106.85-64.58-21.5-23.36-38.03-49.71-48.43-79.88-10.01-29.07-13.84-59.02-11.51-89.47 3.37-44.16 18.89-84.01 45.83-119.27 21.92-28.69 48.9-51.25 81.7-66.56 20.82-9.72 42.56-16.41 65.5-18.93 70.5-7.73 130.57 14.64 180.07 64.47 31.62 31.84 51.36 70.62 59.91 115.01 3.92 20.37 5.29 40.87 3.39 61.35-3.47 37.47-15.34 72.24-36.12 103.88-28.17 42.89-66.55 72.82-114.94 89.37-14.34 4.9-29.6 7.92-44.69 9.66-16.52 1.9-28.23-8.04-29.64-26.43-1.61-21.06-1.5-42.26-1.67-63.39-0.39-47.16-0.49-94.31-0.7-141.47-0.01-1.64 0-3.29 0-5.51 2.9 4.81 5.51 9.14 8.61 14.27 0.45-1.97 0.63-2.75 0.76-3.34 2.43 2.62 4.96 5.33 7.48 8.05q0.65-0.43 1.29-0.86c-0.37-1.79-0.74-3.58-1.3-6.28 2.56 1.77 4.46 3.08 7.73 5.34-0.82-5.74-1.48-10.24-2.12-14.7 1.55 0.6 3.16 1.22 5.64 2.17-0.82-7-4.62-11.51-9.53-16.86 4.08 0.93 7.07 1.61 10.93 2.49-1.3-2.23-2.22-3.82-3.33-5.73 1.25-0.24 2.38-0.46 3.51-0.68q0.19-0.5 0.38-1c-4.52-2.16-9.02-4.36-13.57-6.45-4.29-1.98-6.09-9.72-2.35-12.37 1.42-1 4.97-0.13 6.91 0.99 4.47 2.58 5.49 0.33 6.16-3.41 0.79-4.33 1.73-8.63 2.66-13.24 2.36-0.11 4.81-0.22 7.59-0.34q0.61-2.54 1.23-5.13c7.66 4.9 8.57 7.28 4.47 15.02-2.91 5.51-6.59 10.62-9.44 17.26 2.06-0.48 4.12-0.96 5.99-1.39 0.5 1.94 1.06 4.12 1.62 6.3q0.76 0.32 1.53 0.63 3.53-4.95 7.1-9.95c2.52 3.67 5.35 7.78 8.92 12.97 0-4.04 0-6.88 0-10.32 2.94 2.6 5.38 4.76 7.83 6.93q0.63-0.33 1.26-0.67c-0.63-2.55-1.26-5.1-1.74-8.22 0.26-0.7 0.38-0.84 0.49-0.97q3.44 2.63 6.89 5.25 0.62-0.45 1.23-0.9c-0.58-1.7-1.16-3.39-1.81-5.28 2.26 0.62 4.44 1.21 8.2 2.24-1.6-3.04-2.51-4.77-3.4-6.98 0.19-0.62 0.36-0.76 0.53-0.9q3.17 0.39 6.35 0.77 0.47-0.58 0.93-1.16c-2.48-2.63-4.97-5.25-7.69-8.11 1.31-0.49 2.6-0.98 4.03-1.51-0.28-0.43-0.45-0.88-0.77-1.13-7.49-5.85-16.26-6.81-25.35-6.63-5.24 0.1-8.55-3.09-9.5-9.41 3.33 1.15 6.43 2.22 10.25 3.54-1.11-2.63-1.94-4.58-2.77-6.53 6.44 4.15 12.87 5.76 20.92 3.35-2.85-1.98-5.07-3.52-8.51-5.91 7.31 0 13.37 0 19.44 0q0.16-0.86 0.31-1.71-5.18-2.25-10.36-4.5-0.03-0.41-0.06-0.83 7.7 0 15.39 0 0.21-0.92 0.42-1.83c-3.82-1.55-7.65-3.1-11.29-4.57 4.82-0.99 9.9-2.04 14.98-3.08q0.1-0.92 0.19-1.83-4.72-1.68-9.45-3.36c2.28-1.49 4.96-3.25 7.64-5q-0.25-0.93-0.5-1.87c-4.8 0.49-9.59 0.97-13.93 1.41 2.85-2.09 5.92-4.33 8.98-6.58q-0.26-0.73-0.53-1.45c-3.23 0.36-6.46 0.73-10.28 1.16 1.59-1.94 2.92-3.56 4.24-5.17q-0.32-0.71-0.64-1.42c-5.76 1.73-11.53 3.47-16.86 5.07 1.32-2.32 2.87-5.05 4.59-8.07-2.29-0.69-4.13-1.24-6-1.81q6.44-4.1 12.94-8.23-0.33-1.01-0.66-2.02c-2.74 0.15-5.49 0.3-8.5 0.46 5.48-3.83 10.81-7.55 16.14-11.28q-0.37-0.92-0.73-1.83c-3.81 1.02-7.61 2.04-11.07 2.96 2.19-2.41 4.54-5.01 6.89-7.61q-0.51-0.9-1.01-1.8c-4.65 1.48-9.29 2.96-14.15 4.5 2.04-4.74 7.02-8.41 5.45-14.66-6.37 0.01-8.15 6.19-12.4 9.66 1.18-4.46 2.21-8.32 3.23-12.19q-0.93-0.56-1.87-1.11c-2.9 3.64-5.79 7.28-8.59 10.81 0-3.43 0-7.18 0-11.48-8.5 5.87-7.46 14.94-9.57 23.21-1.86-2.74-3.63-5.35-5.93-8.76-0.5 2.64-0.83 4.42-1.29 6.84-1.16-0.8-1.96-1.35-2.84-1.95q-4.91 5.79-9.86 11.63-0.34-0.14-0.69-0.28 5.03-13.4 10.05-26.8-0.86-0.51-1.71-1.03c-1.28 1.01-2.56 2.02-4.17 3.29 0-2.46 0-4.66 0-6.86q-0.61-0.26-1.21-0.51c-1.45 2.67-2.89 5.34-4.78 8.82 0-4.22 0-7.69 0-11.15q-0.72-0.12-1.44-0.24c-1.28 5.82-2.56 11.65-4.05 18.39-1.74-8.31-1.97-15.97-7.26-22.26 0 4.8 0 9.61 0 15.2-2.96-4.96-5.47-9.17-7.98-13.39q-0.53 0.18-1.05 0.36c0 2.37 0 4.73 0 7.75-1.92-1.5-3.32-2.6-4.72-3.7q-0.64 0.36-1.27 0.72 3.3 8.79 6.6 17.58-0.29 0.17-0.59 0.33-4.04-6.18-8.08-12.37-0.78 0.33-1.56 0.66c0.88 2.88 1.27 6.05 2.75 8.58 3.41 5.82 7.05 11.58 11.21 16.88 2.39 3.07 2.76 5.7 1.38 9.03-1.6-2.47-3.14-4.85-4.68-7.23q-0.67 0.29-1.34 0.59c0 3.52 0 7.05 0 11.48-2.68-3.57-4.96-6.61-7.24-9.64q-0.74 0.04-1.48 0.09c-0.4 3.12-0.8 6.23-1.18 9.21-3.53-1.25-4.39-4.41-4.14-8.51 0.62-10.46-1.22-20.17-9.42-27.66-0.33-0.31-0.75-0.52-1.38-0.96 0 2.07 0 3.82 0 6.27-2.37-2.73-4.32-4.99-7.1-8.2 0.44 3.65 0.73 6.06 1.03 8.63-2.75-1.77-5.18-3.33-7.6-4.89q-0.53 0.37-1.06 0.74c1.33 2.99 2.66 5.98 4.06 9.14-4.19-1.93-8.04-3.7-11.88-5.46q-0.54 0.73-1.08 1.46 3.5 4.49 6.98 8.96c-4.53-1.26-9.16-2.54-14.76-4.08 1.31 6.53 6.43 7.51 10.92 10.47-4.45-0.54-7.84-0.95-11.23-1.36q-0.36 0.83-0.72 1.67 13.14 6.08 26.29 12.17-0.15 0.54-0.29 1.08c-2.35 0-4.7 0-7.61 0 0.79 1.57 1.31 2.63 2.01 4.04-2.5 0-4.68 0-6.87 0q-0.22 0.44-0.44 0.89c3.02 1.92 6.04 3.85 9.42 6-5.58-0.32-10.58-0.6-15.58-0.89 4.25 5.68 11.52 5.11 16.54 9.65-6.61-0.63-13.22-1.27-20.35-1.95 1.29 1.15 2.4 2.13 3.7 3.28-0.74 0.64-1.7 1.46-3.46 2.97 7.11 0.88 13.23 1.64 19.36 2.4q0.01 0.28 0.02 0.57-9.22 1.65-18.45 3.3-0.14 0.84-0.28 1.69c2.49 0.77 4.97 1.55 7.95 2.47-1.73 0.98-3.15 1.78-5.53 3.12 3.43 1.22 6.1 2.17 9.14 3.25-1.5 1.13-2.86 2.16-4.89 3.68 5.47 4 10.93 0.75 16.16 0.87-3.28 3.82-9.95 5.77-14.86 4.71-7.04-1.51-14.13-2.83-21.62-3.31 0.81 0.69 1.62 1.39 2.77 2.37-3.44 0.83-6.71 1.63-9.99 2.42q0 0.55 0 1.11c1.66 0.77 3.32 1.54 5.49 2.54-2.98 1.38-5.66 2.62-8.33 3.85q0.04 0.62 0.09 1.23c2.77 0.47 5.54 0.95 8.54 1.46q-4.46 3.14-9 6.32 0.31 0.78 0.62 1.56c3.87-0.69 7.73-1.38 11.91-2.13-3.66 3.04-7.11 5.92-10.57 8.79q0.79 1.06 1.58 2.12c2.52-0.64 5.04-1.28 7.72-1.96-1.17 2.43-2.3 4.76-3.42 7.09q0.45 0.32 0.9 0.63c1.75-1.03 3.5-2.06 5.99-3.52-0.56 3.18-1.02 5.78-1.49 8.38q0.62 0.39 1.24 0.78 2.5-3.23 5-6.46 0.44 0.28 0.88 0.55-0.59 4.55-1.19 9.1 0.77 0.39 1.55 0.77c2.76-4.41 5.52-8.83 8.98-14.35 0.34 3.78 0.6 6.56 0.85 9.34q0.73 0.19 1.45 0.37 2.69-9.49 5.34-18.99c0.22-0.79 0.39-1.62 0.42-2.43 0.3-7.95 4.75-12.09 12.05-14.54 4.63-1.55 8.75-4.61 13.2-6.78 1.82-0.88 5.4-2.07 5.65-1.65 1.33 2.29 2.32 5.02 2.44 7.65 0.05 0.94-2.52 2.32-4.11 2.97-6.06 2.48-12.29 4.53-18.26 7.19-2.86 1.27-5.27 3.53-7.88 5.34q0.29 0.56 0.58 1.11 5.73-0.96 11.45-1.91 0.14 0.42 0.27 0.85-3.05 2.18-6.09 4.37 0.27 0.62 0.55 1.23 4.53-1.14 9.07-2.28 0.25 0.36 0.49 0.72c-2.04 1.56-4.25 2.96-6.07 4.76-1.12 1.11-1.65 2.83-2.44 4.28 1.76 0.16 3.58 0.68 5.25 0.37 1.54-0.28 2.92-1.45 4.96-2.11 0.77 0.29 0.96 0.46 1.14 0.63z"/>
</svg>