<svg version="1.1" id="Layer_1" xmlns="http://www.w3.org/2000/svg" xmlns:xlink="http://www.w3.org/1999/xlink" x="0px" y="0px"
	 width="100%" viewBox="0 0 512 512" enable-background="new 0 0 512 512" xml:space="preserve">
<path fill="#2e4d43" opacity="1.000000" stroke="none" 
	d="
M323.998169,29.994850 
	C349.916962,38.126408 373.428253,50.083885 394.508545,66.640396 
	C434.286194,97.881874 460.599731,138.178482 475.163879,186.446487 
	C480.529541,204.229172 483.339111,222.298248 484.193634,240.862900 
	C486.801300,297.515533 471.234467,348.622528 437.757751,394.165344 
	C417.542480,421.666901 391.703217,442.854675 361.774567,459.275452 
	C341.502411,470.398041 319.843475,477.263184 297.362823,481.780212 
	C278.389008,485.592590 259.077179,486.150574 239.886276,484.811920 
	C194.164078,481.622620 153.478333,464.619568 117.685493,436.524231 
	C76.568077,404.249298 48.897827,362.748749 35.798447,311.812347 
	C32.207451,297.848907 29.943027,283.781586 28.897575,269.393738 
	C24.686543,211.440323 40.034180,159.115082 74.166595,112.381699 
	C101.513725,74.938614 137.167358,48.140034 180.948410,32.589375 
	C201.641220,25.239468 222.978012,20.928434 245.040955,19.858810 
	C264.556366,18.912695 283.813568,19.991512 302.857300,24.208481 
	C309.850586,25.757044 316.685272,28.021994 323.998169,29.994850 
M313.227753,207.881332 
	C312.873810,207.784454 312.519836,207.687576 312.165894,207.590714 
	C312.408447,208.093903 312.651031,208.597076 312.960327,209.863510 
	C313.591705,212.412537 314.223083,214.961563 314.854462,217.510605 
	C314.433167,217.734634 314.011871,217.958664 313.590576,218.182693 
	C311.143219,216.014587 308.695862,213.846481 305.761230,211.246689 
	C305.761230,214.687637 305.761230,217.525299 305.761230,221.567947 
	C302.193909,216.382874 299.363007,212.268173 296.835907,208.595062 
	C294.452850,211.940903 292.097809,215.247345 289.742798,218.553802 
	C289.230774,218.341461 288.718750,218.129105 288.206726,217.916763 
	C287.647064,215.738235 287.087433,213.559692 286.588501,211.617493 
	C284.721039,212.051392 282.660248,212.530182 280.599457,213.008987 
	C283.446442,206.365067 287.131012,201.260681 290.043915,195.748505 
	C294.135590,188.005753 293.226501,185.627014 285.566498,180.730621 
	C285.151459,182.463913 284.745789,184.158051 284.339417,185.855148 
	C281.560089,185.980453 279.108795,186.090973 276.749878,186.197327 
	C275.817657,190.805908 274.876892,195.108765 274.092529,199.439957 
	C273.415039,203.180984 272.401184,205.433868 267.934204,202.848114 
	C265.994568,201.725342 262.436523,200.860168 261.020264,201.863541 
	C257.280426,204.513046 259.079865,212.251755 263.372101,214.228561 
	C267.920990,216.323593 272.421783,218.522995 276.943604,220.676819 
	C276.817047,221.010696 276.690521,221.344589 276.563995,221.678482 
	C275.429657,221.898529 274.295288,222.118591 273.052673,222.359650 
	C274.158508,224.265076 275.084717,225.860992 276.378815,228.090805 
	C272.522583,227.211380 269.527252,226.528275 265.446869,225.597733 
	C270.357971,230.954025 274.160645,235.464554 274.979462,242.456680 
	C272.504364,241.506744 270.885590,240.885452 269.339874,240.292206 
	C269.984711,244.751419 270.635559,249.252060 271.464661,254.985336 
	C268.193909,252.732147 266.293152,251.422760 263.726440,249.654572 
	C264.287140,252.346603 264.660431,254.138840 265.033722,255.931076 
	C264.602356,256.216156 264.170990,256.501221 263.739594,256.786316 
	C261.217133,254.073395 258.694702,251.360474 256.261261,248.743317 
	C256.127563,249.332901 255.950912,250.111801 255.504196,252.081619 
	C252.404297,246.947754 249.790573,242.619064 246.887375,237.810959 
	C246.887375,240.032120 246.880814,241.677536 246.888306,243.322891 
	C247.103012,290.477264 247.201523,337.632599 247.588516,384.785583 
	C247.762009,405.924500 247.649872,427.124878 249.263672,448.175018 
	C250.674286,466.574554 262.381927,476.512238 278.902832,474.607330 
	C293.989380,472.867828 309.248444,469.853729 323.592194,464.947601 
	C371.980316,448.396973 410.357697,418.471741 438.534363,375.575073 
	C459.311554,343.943420 471.183044,309.165100 474.652832,271.696289 
	C476.549072,251.219894 475.179932,230.722900 471.256317,210.347931 
	C462.709442,165.964584 442.968597,127.184937 411.345245,95.343216 
	C361.853241,45.509396 301.778503,23.140537 231.280289,30.871096 
	C208.335388,33.387142 186.604263,40.083332 165.781631,49.803379 
	C132.981079,65.114746 106.002426,87.671242 84.081894,116.357689 
	C57.137619,151.618484 41.623005,191.474457 38.245266,235.629120 
	C35.915726,266.081451 39.748299,296.027191 49.764427,325.101929 
	C60.155857,355.266052 76.690826,381.617798 98.187180,404.976379 
	C127.525818,436.856598 163.699463,457.524017 205.038330,469.556122 
	C211.662659,471.484192 220.684128,468.882477 223.265030,463.670563 
	C226.146042,457.852600 229.084320,451.549652 229.716019,445.229675 
	C231.445923,427.922546 232.285934,410.506775 232.912247,393.113647 
	C233.858398,366.838043 234.325119,340.545105 234.994751,314.259552 
	C235.121979,309.265045 235.308411,304.271057 235.357101,299.275787 
	C235.452896,289.444794 235.549301,279.612640 235.495407,269.781799 
	C235.456421,262.670288 235.165237,255.560303 235.008957,248.449142 
	C234.965622,246.477081 235.002365,244.503265 235.002365,242.530258 
	C234.760086,242.509171 234.517807,242.488083 234.275528,242.466995 
	C232.372086,249.302231 230.468628,256.137482 228.565170,262.972717 
	C227.928055,262.797882 227.290924,262.623047 226.653793,262.448181 
	C228.889954,254.412476 231.126129,246.376770 233.839600,237.873734 
	C233.901901,237.022110 233.964203,236.170486 234.026520,235.318863 
	C233.809036,235.244690 233.591537,235.170517 233.374054,235.096344 
	C233.044662,235.704346 232.715271,236.312347 231.993195,237.548096 
	C228.986374,243.369446 225.979568,249.190811 222.972763,255.012161 
	C222.421524,254.749237 221.870285,254.486313 221.319046,254.223373 
	C225.332047,245.420151 229.345047,236.616928 233.358047,227.813690 
	C233.059814,227.630554 232.761581,227.447418 232.463348,227.264282 
	C229.836578,229.747864 227.209808,232.231445 224.232391,234.276031 
	C224.105255,234.138535 223.978104,234.001022 223.906876,233.127014 
	C226.776749,227.735748 229.646606,222.344482 232.253891,217.446503 
	C229.797791,215.833221 227.626144,214.406769 225.454498,212.980316 
	C225.609207,212.811798 225.763931,212.643265 225.918655,212.474747 
	C223.690430,211.955841 221.462204,211.436951 218.528458,210.753754 
	C220.627548,207.819199 222.144516,205.698456 224.103531,203.192047 
	C224.256851,202.844681 224.410172,202.497314 224.563492,202.149963 
	C223.903381,202.282455 223.243286,202.414963 221.925919,202.827911 
	C220.478073,203.607178 219.102051,204.777390 217.562988,205.060181 
	C215.889877,205.367569 214.065216,204.850143 212.306641,204.692337 
	C213.102264,203.242783 213.628479,201.521179 214.754913,200.405701 
	C216.568253,198.609970 218.777725,197.214249 220.819839,195.649551 
	C220.656677,195.409225 220.493500,195.168915 220.330338,194.928589 
	C217.305740,195.689514 214.281158,196.450439 211.256561,197.211365 
	C211.073456,196.801346 210.890350,196.391327 210.707245,195.981308 
	C212.738388,194.523148 214.769531,193.064972 216.800674,191.606812 
	C216.711670,191.322876 216.622650,191.038940 216.533646,190.755005 
	C212.717178,191.393204 208.900726,192.031387 205.084274,192.669586 
	C204.888458,192.300034 204.692642,191.930481 204.496826,191.560928 
	C207.109238,189.748779 209.521683,187.486908 212.375595,186.217941 
	C218.347046,183.562775 224.584015,181.511108 230.637543,179.030014 
	C232.228455,178.377960 234.797379,177.001526 234.752121,176.061996 
	C234.625626,173.434875 233.637985,170.704590 232.307297,168.411270 
	C232.063141,167.990524 228.484711,169.176559 226.661667,170.064896 
	C222.208801,172.234711 218.093262,175.294464 213.456985,176.844788 
	C206.156723,179.285919 201.707748,183.432083 201.413300,191.380417 
	C201.383133,192.194611 201.212128,193.019852 200.992584,193.808243 
	C199.228226,200.143814 197.436523,206.471756 195.653198,212.802032 
	C195.168991,212.678513 194.684784,212.554993 194.200577,212.431473 
	C193.945984,209.651077 193.691406,206.870682 193.345261,203.090332 
	C189.891418,208.612396 187.130371,213.026810 184.369324,217.441238 
	C183.852142,217.184464 183.334961,216.927689 182.817780,216.670914 
	C183.216553,213.636047 183.615341,210.601181 184.014114,207.566315 
	C183.720825,207.385757 183.427536,207.205185 183.134247,207.024628 
	C181.464890,209.176620 179.795532,211.328613 178.126175,213.480606 
	C177.715622,213.220947 177.305069,212.961288 176.894516,212.701630 
	C177.356796,210.102295 177.819061,207.502960 178.384628,204.322800 
	C175.894394,205.783081 174.142776,206.810242 172.391144,207.837387 
	C172.090622,207.629349 171.790100,207.421295 171.489578,207.213257 
	C172.613998,204.882370 173.738419,202.551468 174.913681,200.115189 
	C172.230347,200.798096 169.707886,201.440048 167.185425,202.082001 
	C166.661682,201.374847 166.137955,200.667694 165.614227,199.960541 
	C169.068588,197.087341 172.522964,194.214142 176.179932,191.172440 
	C171.997391,191.920685 168.135803,192.611526 164.274231,193.302353 
	C164.066574,192.783020 163.858932,192.263687 163.651291,191.744354 
	C166.666672,189.624619 169.682053,187.504868 172.649338,185.418930 
	C169.647766,184.905777 166.876984,184.432083 164.106216,183.958374 
	C164.075851,183.550262 164.045486,183.142166 164.015121,182.734055 
	C166.694992,181.495911 169.374863,180.257767 172.349136,178.883591 
	C170.182556,177.880402 168.518906,177.110077 166.855255,176.339752 
	C166.856659,175.968994 166.858047,175.598236 166.859451,175.227478 
	C170.135468,174.435745 173.411499,173.644012 176.845474,172.814102 
	C175.704285,171.832108 174.893509,171.134430 174.082733,170.436752 
	C181.569000,170.915939 188.656952,172.235428 195.702316,173.752625 
	C200.610382,174.809555 207.276306,172.856522 210.558670,169.043045 
	C205.328094,168.924927 199.871552,172.167450 194.401764,168.171158 
	C196.425842,166.647736 197.790161,165.620880 199.289963,164.492065 
	C196.245804,163.410217 193.584854,162.464539 190.150955,161.244171 
	C192.525757,159.904190 193.951263,159.099854 195.680069,158.124374 
	C192.703857,157.197800 190.217072,156.423599 187.730286,155.649399 
	C187.822922,155.085266 187.915558,154.521133 188.008194,153.957001 
	C194.159958,152.857864 200.311707,151.758728 206.463455,150.659576 
	C206.455139,150.469818 206.446808,150.280060 206.438477,150.090302 
	C200.314240,149.332321 194.189987,148.574341 187.079376,147.694290 
	C188.836472,146.183975 189.796036,145.359177 190.537933,144.721481 
	C189.237473,143.568359 188.131409,142.587616 186.837265,141.440094 
	C193.974014,142.124313 200.580917,142.757736 207.187820,143.391159 
	C202.174774,138.846176 194.903030,139.424225 190.648712,133.742050 
	C195.651474,134.026718 200.654236,134.311386 206.234756,134.628937 
	C202.852692,132.476547 199.830811,130.553375 196.808929,128.630219 
	C196.955002,128.332764 197.101089,128.035324 197.247162,127.737869 
	C199.435181,127.737869 201.623215,127.737869 204.121994,127.737869 
	C203.422028,126.329872 202.897446,125.274635 202.113632,123.697983 
	C205.015457,123.697983 207.368668,123.697983 209.721878,123.697983 
	C209.816483,123.338142 209.911087,122.978310 210.005692,122.618469 
	C201.243195,118.562004 192.480698,114.505539 183.718201,110.449074 
	C183.957626,109.891396 184.197037,109.333710 184.436462,108.776031 
	C187.827499,109.187851 191.218521,109.599670 195.666763,110.139885 
	C191.183350,107.175423 186.060806,106.197334 184.751648,99.666473 
	C190.346848,101.213486 194.979736,102.494431 199.512527,103.747696 
	C197.194672,100.772690 194.862930,97.779823 192.531174,94.786964 
	C192.891129,94.299736 193.251083,93.812508 193.611038,93.325279 
	C197.453247,95.093094 201.295456,96.860909 205.485504,98.788765 
	C204.085312,95.634857 202.757645,92.644325 201.429993,89.653793 
	C201.784332,89.406792 202.138687,89.159790 202.493027,88.912788 
	C204.914337,90.469101 207.335648,92.025414 210.094208,93.798508 
	C209.786667,91.231796 209.497925,88.822090 209.060257,85.169334 
	C211.836121,88.379517 213.792068,90.641487 216.155090,93.374214 
	C216.155090,90.917603 216.155090,89.167519 216.155090,87.099823 
	C216.794998,87.538170 217.205276,87.753387 217.536194,88.055511 
	C225.741470,95.546860 227.583862,105.260559 226.955887,115.718315 
	C226.709305,119.824661 227.567627,122.983887 231.098953,124.225189 
	C231.479034,121.252686 231.877426,118.137070 232.275818,115.021454 
	C232.771301,114.990417 233.266785,114.959373 233.762268,114.928329 
	C236.042191,117.962898 238.322113,120.997459 241.003632,124.566544 
	C241.003632,120.138405 241.003632,116.614647 241.003632,113.090889 
	C241.450409,112.892418 241.897171,112.693947 242.343948,112.495476 
	C243.883606,114.880150 245.423264,117.264832 247.017487,119.734024 
	C248.395905,116.403862 248.031998,113.766396 245.636169,110.703941 
	C241.483276,105.395584 237.842819,99.643852 234.429764,93.818893 
	C232.948425,91.290749 232.564194,88.119751 231.681641,85.240746 
	C232.201691,85.020340 232.721741,84.799927 233.241806,84.579514 
	C235.934769,88.704094 238.627747,92.828682 241.320709,96.953262 
	C241.518250,96.841133 241.715790,96.729004 241.913315,96.616867 
	C239.710968,90.756310 237.508621,84.895744 235.306259,79.035187 
	C235.729568,78.796455 236.152878,78.557716 236.576187,78.318985 
	C237.979950,79.419518 239.383713,80.520050 241.302704,82.024521 
	C241.302704,78.998711 241.302704,76.635956 241.302704,74.273201 
	C241.650818,74.153770 241.998947,74.034348 242.347061,73.914925 
	C244.860809,78.128281 247.374557,82.341637 250.331909,87.298553 
	C250.331909,81.706116 250.331909,76.903671 250.331909,72.101227 
	C255.623123,78.387070 255.848251,86.053650 257.592804,94.356522 
	C259.077209,87.618416 260.360443,81.793571 261.643677,75.968719 
	C262.121765,76.050316 262.599854,76.131912 263.077942,76.213501 
	C263.077942,79.674339 263.077942,83.135170 263.077942,87.360191 
	C264.966431,83.876503 266.413757,81.206566 267.861115,78.536636 
	C268.263428,78.708138 268.665771,78.879639 269.068085,79.051140 
	C269.068085,81.251022 269.068085,83.450912 269.068085,85.914894 
	C270.682556,84.639839 271.960266,83.630760 273.237976,82.621681 
	C273.808258,82.965065 274.378540,83.308441 274.948822,83.651825 
	C271.599670,92.585983 268.250488,101.520149 264.901337,110.454308 
	C265.131073,110.545807 265.360809,110.637314 265.590546,110.728821 
	C268.884674,106.842110 272.178802,102.955391 275.449158,99.096725 
	C276.331848,99.701370 277.133698,100.250618 278.294037,101.045441 
	C278.747040,98.632195 279.081848,96.848557 279.577789,94.206505 
	C281.883270,97.615921 283.650543,100.229378 285.505432,102.972458 
	C287.617340,94.697258 286.577179,85.626648 295.076416,79.764229 
	C295.076416,84.057014 295.076416,87.814117 295.076416,91.240891 
	C297.879761,87.711914 300.773163,84.069611 303.666534,80.427307 
	C304.292572,80.797356 304.918610,81.167412 305.544647,81.537468 
	C304.516815,85.405113 303.489014,89.272766 302.305298,93.726974 
	C306.560913,90.255249 308.343201,84.077499 314.707794,84.072014 
	C316.275909,90.321243 311.300232,93.992805 309.261963,98.733368 
	C314.123474,97.185974 318.764832,95.708641 323.406219,94.231308 
	C323.744354,94.830116 324.082489,95.428917 324.420624,96.027718 
	C322.070343,98.626854 319.720032,101.225983 317.533600,103.643883 
	C320.992218,102.716637 324.794312,101.697296 328.596405,100.677956 
	C328.842133,101.287598 329.087860,101.897232 329.333588,102.506874 
	C323.999573,106.235741 318.665588,109.964615 313.187347,113.794319 
	C316.198212,113.630089 318.945953,113.480217 321.693726,113.330345 
	C321.913116,114.002602 322.132538,114.674866 322.351929,115.347130 
	C318.024231,118.100639 313.696533,120.854149 309.407898,123.582809 
	C311.278107,124.147499 313.124329,124.704964 315.405518,125.393753 
	C313.688354,128.414490 312.140808,131.136749 310.818298,133.463226 
	C316.147797,131.859039 321.915222,130.123047 327.682617,128.387039 
	C327.895111,128.861511 328.107605,129.335968 328.320099,129.810440 
	C326.996307,131.423599 325.672516,133.036774 324.081055,134.976135 
	C327.900330,134.546066 331.130341,134.182358 334.360321,133.818649 
	C334.537140,134.301315 334.713959,134.783981 334.890778,135.266647 
	C331.825104,137.515259 328.759399,139.763885 325.910217,141.853714 
	C330.248138,141.413406 335.042572,140.926773 339.837006,140.440125 
	C340.004211,141.064255 340.171448,141.688385 340.338654,142.312515 
	C337.660431,144.063766 334.982239,145.815018 332.699219,147.307831 
	C335.857544,148.429459 339.005432,149.547394 342.153351,150.665329 
	C342.089417,151.275742 342.025482,151.886139 341.961517,152.496536 
	C336.881989,153.542358 331.802460,154.588196 326.981079,155.580856 
	C330.623322,157.054520 334.445709,158.601074 338.268127,160.147629 
	C338.130371,160.758804 337.992615,161.369965 337.854858,161.981140 
	C332.723297,161.981140 327.591736,161.981140 322.460175,161.981140 
	C322.481445,162.257431 322.502716,162.533722 322.523987,162.810028 
	C325.977081,164.308578 329.430145,165.807129 332.883240,167.305679 
	C332.777924,167.877991 332.672607,168.450287 332.567291,169.022598 
	C326.503723,169.022598 320.440155,169.022598 313.132172,169.022598 
	C316.568909,171.407898 318.790710,172.949951 321.639099,174.926926 
	C313.593231,177.337677 307.157135,175.730194 300.721588,171.578796 
	C301.549072,173.530945 302.376526,175.483109 303.488525,178.106491 
	C299.674805,176.789307 296.572662,175.717880 293.238647,174.566376 
	C294.185547,180.888794 297.495178,184.077301 302.744415,183.976868 
	C311.833557,183.802979 320.598206,184.762161 328.090149,190.614487 
	C328.408966,190.863556 328.575256,191.307846 328.862305,191.735153 
	C327.425537,192.274246 326.141418,192.756088 324.833923,193.246674 
	C327.547913,196.109604 330.035065,198.733261 332.522217,201.356918 
	C332.212952,201.745712 331.903687,202.134506 331.594421,202.523285 
	C329.474640,202.266266 327.354858,202.009247 324.866394,201.198929 
	C324.303040,201.151642 323.739685,201.104370 323.176331,201.057083 
	C323.516754,201.556381 323.857208,202.055664 324.686371,203.118759 
	C325.599152,204.855667 326.511932,206.592575 328.106567,209.626999 
	C324.347687,208.602478 322.166504,208.007950 319.905731,207.391754 
	C320.556244,209.278122 321.140533,210.972443 321.724823,212.666763 
	C321.313141,212.967575 320.901428,213.268372 320.489746,213.569183 
	C318.193146,211.820007 315.896515,210.070831 313.227753,207.881332 
M286.280029,127.818214 
	C276.313629,134.215302 279.298706,143.156723 281.690704,152.455246 
	C284.749268,151.908188 287.867920,151.350388 290.986542,150.792603 
	C290.507263,150.463440 290.027985,150.134277 289.548706,149.805115 
	C292.253326,142.469559 294.957947,135.134018 297.709045,127.672432 
	C294.687958,128.119003 291.193756,121.224121 286.280029,127.818214 
M206.186646,159.165070 
	C205.664215,159.547089 205.141785,159.929108 204.901871,160.104538 
	C213.064178,165.947479 221.446899,166.344666 229.876923,160.586304 
	C224.732346,154.511414 220.698914,153.468567 213.664032,156.346115 
	C211.418716,157.264526 209.149216,158.123764 206.186646,159.165070 
M272.704590,126.141357 
	C271.203491,128.264069 269.702393,130.386780 267.894653,132.943100 
	C273.684875,133.103668 275.752441,128.693787 278.680054,125.841469 
	C287.273895,117.468636 287.185638,117.378044 278.103760,108.589470 
	C275.960663,111.836075 273.854553,115.026611 271.499725,118.593971 
	C273.649353,118.330658 275.165619,118.144920 278.014008,117.796013 
	C275.961243,120.985321 274.507172,123.244476 272.704590,126.141357 
M226.001526,148.032623 
	C228.928818,150.911484 231.856110,153.790359 234.783401,156.669220 
	C235.338791,156.387787 235.894165,156.106354 236.449554,155.824921 
	C236.710190,152.984177 237.420303,150.098557 237.142120,147.311584 
	C236.469788,140.575928 228.295380,142.721695 225.999130,137.103806 
	C225.999130,141.129791 225.999130,144.147369 226.001526,148.032623 
M256.445831,155.956680 
	C254.834808,156.834122 253.223770,157.711578 251.147324,158.842499 
	C253.040100,160.545547 254.320053,161.697220 255.918671,163.135590 
	C257.274567,161.291580 258.752136,159.866486 259.484009,158.127579 
	C260.264923,156.272186 260.183472,154.269852 256.445831,155.956680 
M247.234680,139.944077 
	C243.138092,141.584167 243.079346,142.690002 247.876236,147.794571 
	C247.876236,145.344925 247.876236,142.895279 247.234680,139.944077 
z"/>
<path fill="#000101" opacity="1.000000" stroke="none" 
	d="
M223.661499,203.577713 
	C222.144516,205.698456 220.627548,207.819199 218.528458,210.753754 
	C221.462204,211.436951 223.690430,211.955841 225.918655,212.474747 
	C225.763931,212.643265 225.609207,212.811798 225.454498,212.980316 
	C227.626144,214.406769 229.797791,215.833221 232.253891,217.446503 
	C229.646606,222.344482 226.776749,227.735748 223.596802,233.634171 
	C223.164505,234.681641 223.042297,235.221954 222.713547,236.675308 
	C223.778061,235.559143 224.180573,235.137100 224.583069,234.715027 
	C227.209808,232.231445 229.836578,229.747864 232.463348,227.264282 
	C232.761581,227.447418 233.059814,227.630554 233.358047,227.813690 
	C229.345047,236.616928 225.332047,245.420151 221.319046,254.223373 
	C221.870285,254.486313 222.421524,254.749237 222.972763,255.012161 
	C225.979568,249.190811 228.986374,243.369446 232.415436,237.601898 
	C233.012558,237.884155 233.187424,238.112610 233.362274,238.341049 
	C231.126129,246.376770 228.889954,254.412476 226.653793,262.448181 
	C227.290924,262.623047 227.928055,262.797882 228.565170,262.972717 
	C230.468628,256.137482 232.372086,249.302231 234.275528,242.466995 
	C234.517807,242.488083 234.760086,242.509171 235.002365,242.530258 
	C235.002365,244.503265 234.965622,246.477081 235.008957,248.449142 
	C235.165237,255.560303 235.456421,262.670288 235.495407,269.781799 
	C235.549301,279.612640 235.452896,289.444794 235.357101,299.275787 
	C235.308411,304.271057 235.121979,309.265045 234.994751,314.259552 
	C234.325119,340.545105 233.858398,366.838043 232.912247,393.113647 
	C232.285934,410.506775 231.445923,427.922546 229.716019,445.229675 
	C229.084320,451.549652 226.146042,457.852600 223.265030,463.670563 
	C220.684128,468.882477 211.662659,471.484192 205.038330,469.556122 
	C163.699463,457.524017 127.525818,436.856598 98.187180,404.976379 
	C76.690826,381.617798 60.155857,355.266052 49.764427,325.101929 
	C39.748299,296.027191 35.915726,266.081451 38.245266,235.629120 
	C41.623005,191.474457 57.137619,151.618484 84.081894,116.357689 
	C106.002426,87.671242 132.981079,65.114746 165.781631,49.803379 
	C186.604263,40.083332 208.335388,33.387142 231.280289,30.871096 
	C301.778503,23.140537 361.853241,45.509396 411.345245,95.343216 
	C442.968597,127.184937 462.709442,165.964584 471.256317,210.347931 
	C475.179932,230.722900 476.549072,251.219894 474.652832,271.696289 
	C471.183044,309.165100 459.311554,343.943420 438.534363,375.575073 
	C410.357697,418.471741 371.980316,448.396973 323.592194,464.947601 
	C309.248444,469.853729 293.989380,472.867828 278.902832,474.607330 
	C262.381927,476.512238 250.674286,466.574554 249.263672,448.175018 
	C247.649872,427.124878 247.762009,405.924500 247.588516,384.785583 
	C247.201523,337.632599 247.103012,290.477264 246.888306,243.322891 
	C246.880814,241.677536 246.887375,240.032120 246.887375,237.810959 
	C249.790573,242.619064 252.404297,246.947754 255.504196,252.081619 
	C255.950912,250.111801 256.127563,249.332901 256.261261,248.743317 
	C258.694702,251.360474 261.217133,254.073395 263.739594,256.786316 
	C264.170990,256.501221 264.602356,256.216156 265.033722,255.931076 
	C264.660431,254.138840 264.287140,252.346603 263.726440,249.654572 
	C266.293152,251.422760 268.193909,252.732147 271.464661,254.985336 
	C270.635559,249.252060 269.984711,244.751419 269.339874,240.292206 
	C270.885590,240.885452 272.504364,241.506744 274.979462,242.456680 
	C274.160645,235.464554 270.357971,230.954025 265.446869,225.597733 
	C269.527252,226.528275 272.522583,227.211380 276.378815,228.090805 
	C275.084717,225.860992 274.158508,224.265076 273.052673,222.359650 
	C274.295288,222.118591 275.429657,221.898529 276.563995,221.678482 
	C276.690521,221.344589 276.817047,221.010696 276.943604,220.676819 
	C272.421783,218.522995 267.920990,216.323593 263.372101,214.228561 
	C259.079865,212.251755 257.280426,204.513046 261.020264,201.863541 
	C262.436523,200.860168 265.994568,201.725342 267.934204,202.848114 
	C272.401184,205.433868 273.415039,203.180984 274.092529,199.439957 
	C274.876892,195.108765 275.817657,190.805908 276.749878,186.197327 
	C279.108795,186.090973 281.560089,185.980453 284.339417,185.855148 
	C284.745789,184.158051 285.151459,182.463913 285.566498,180.730621 
	C293.226501,185.627014 294.135590,188.005753 290.043915,195.748505 
	C287.131012,201.260681 283.446442,206.365067 280.599457,213.008987 
	C282.660248,212.530182 284.721039,212.051392 286.588501,211.617493 
	C287.087433,213.559692 287.647064,215.738235 288.206726,217.916763 
	C288.718750,218.129105 289.230774,218.341461 289.742798,218.553802 
	C292.097809,215.247345 294.452850,211.940903 296.835907,208.595062 
	C299.363007,212.268173 302.193909,216.382874 305.761230,221.567947 
	C305.761230,217.525299 305.761230,214.687637 305.761230,211.246689 
	C308.695862,213.846481 311.143219,216.014587 313.590576,218.182693 
	C314.011871,217.958664 314.433167,217.734634 314.854462,217.510605 
	C314.223083,214.961563 313.591705,212.412537 313.108887,209.292053 
	C313.371613,208.587631 313.485779,208.454636 313.599915,208.321655 
	C315.896515,210.070831 318.193146,211.820007 320.489746,213.569183 
	C320.901428,213.268372 321.313141,212.967575 321.724823,212.666763 
	C321.140533,210.972443 320.556244,209.278122 319.905731,207.391754 
	C322.166504,208.007950 324.347687,208.602478 328.106567,209.626999 
	C326.511932,206.592575 325.599152,204.855667 324.709106,202.646194 
	C324.899597,202.033173 325.067322,201.892700 325.235077,201.752228 
	C327.354858,202.009247 329.474640,202.266266 331.594421,202.523285 
	C331.903687,202.134506 332.212952,201.745712 332.522217,201.356918 
	C330.035065,198.733261 327.547913,196.109604 324.833923,193.246674 
	C326.141418,192.756088 327.425537,192.274246 328.862305,191.735153 
	C328.575256,191.307846 328.408966,190.863556 328.090149,190.614487 
	C320.598206,184.762161 311.833557,183.802979 302.744415,183.976868 
	C297.495178,184.077301 294.185547,180.888794 293.238647,174.566376 
	C296.572662,175.717880 299.674805,176.789307 303.488525,178.106491 
	C302.376526,175.483109 301.549072,173.530945 300.721588,171.578796 
	C307.157135,175.730194 313.593231,177.337677 321.639099,174.926926 
	C318.790710,172.949951 316.568909,171.407898 313.132172,169.022598 
	C320.440155,169.022598 326.503723,169.022598 332.567291,169.022598 
	C332.672607,168.450287 332.777924,167.877991 332.883240,167.305679 
	C329.430145,165.807129 325.977081,164.308578 322.523987,162.810028 
	C322.502716,162.533722 322.481445,162.257431 322.460175,161.981140 
	C327.591736,161.981140 332.723297,161.981140 337.854858,161.981140 
	C337.992615,161.369965 338.130371,160.758804 338.268127,160.147629 
	C334.445709,158.601074 330.623322,157.054520 326.981079,155.580856 
	C331.802460,154.588196 336.881989,153.542358 341.961517,152.496536 
	C342.025482,151.886139 342.089417,151.275742 342.153351,150.665329 
	C339.005432,149.547394 335.857544,148.429459 332.699219,147.307831 
	C334.982239,145.815018 337.660431,144.063766 340.338654,142.312515 
	C340.171448,141.688385 340.004211,141.064255 339.837006,140.440125 
	C335.042572,140.926773 330.248138,141.413406 325.910217,141.853714 
	C328.759399,139.763885 331.825104,137.515259 334.890778,135.266647 
	C334.713959,134.783981 334.537140,134.301315 334.360321,133.818649 
	C331.130341,134.182358 327.900330,134.546066 324.081055,134.976135 
	C325.672516,133.036774 326.996307,131.423599 328.320099,129.810440 
	C328.107605,129.335968 327.895111,128.861511 327.682617,128.387039 
	C321.915222,130.123047 316.147797,131.859039 310.818298,133.463226 
	C312.140808,131.136749 313.688354,128.414490 315.405518,125.393753 
	C313.124329,124.704964 311.278107,124.147499 309.407898,123.582809 
	C313.696533,120.854149 318.024231,118.100639 322.351929,115.347130 
	C322.132538,114.674866 321.913116,114.002602 321.693726,113.330345 
	C318.945953,113.480217 316.198212,113.630089 313.187347,113.794319 
	C318.665588,109.964615 323.999573,106.235741 329.333588,102.506874 
	C329.087860,101.897232 328.842133,101.287598 328.596405,100.677956 
	C324.794312,101.697296 320.992218,102.716637 317.533600,103.643883 
	C319.720032,101.225983 322.070343,98.626854 324.420624,96.027718 
	C324.082489,95.428917 323.744354,94.830116 323.406219,94.231308 
	C318.764832,95.708641 314.123474,97.185974 309.261963,98.733368 
	C311.300232,93.992805 316.275909,90.321243 314.707794,84.072014 
	C308.343201,84.077499 306.560913,90.255249 302.305298,93.726974 
	C303.489014,89.272766 304.516815,85.405113 305.544647,81.537468 
	C304.918610,81.167412 304.292572,80.797356 303.666534,80.427307 
	C300.773163,84.069611 297.879761,87.711914 295.076416,91.240891 
	C295.076416,87.814117 295.076416,84.057014 295.076416,79.764229 
	C286.577179,85.626648 287.617340,94.697258 285.505432,102.972458 
	C283.650543,100.229378 281.883270,97.615921 279.577789,94.206505 
	C279.081848,96.848557 278.747040,98.632195 278.294037,101.045441 
	C277.133698,100.250618 276.331848,99.701370 275.449158,99.096725 
	C272.178802,102.955391 268.884674,106.842110 265.590546,110.728821 
	C265.360809,110.637314 265.131073,110.545807 264.901337,110.454308 
	C268.250488,101.520149 271.599670,92.585983 274.948822,83.651825 
	C274.378540,83.308441 273.808258,82.965065 273.237976,82.621681 
	C271.960266,83.630760 270.682556,84.639839 269.068085,85.914894 
	C269.068085,83.450912 269.068085,81.251022 269.068085,79.051140 
	C268.665771,78.879639 268.263428,78.708138 267.861115,78.536636 
	C266.413757,81.206566 264.966431,83.876503 263.077942,87.360191 
	C263.077942,83.135170 263.077942,79.674339 263.077942,76.213501 
	C262.599854,76.131912 262.121765,76.050316 261.643677,75.968719 
	C260.360443,81.793571 259.077209,87.618416 257.592804,94.356522 
	C255.848251,86.053650 255.623123,78.387070 250.331909,72.101227 
	C250.331909,76.903671 250.331909,81.706116 250.331909,87.298553 
	C247.374557,82.341637 244.860809,78.128281 242.347061,73.914925 
	C241.998947,74.034348 241.650818,74.153770 241.302704,74.273201 
	C241.302704,76.635956 241.302704,78.998711 241.302704,82.024521 
	C239.383713,80.520050 237.979950,79.419518 236.576187,78.318985 
	C236.152878,78.557716 235.729568,78.796455 235.306259,79.035187 
	C237.508621,84.895744 239.710968,90.756310 241.913315,96.616867 
	C241.715790,96.729004 241.518250,96.841133 241.320709,96.953262 
	C238.627747,92.828682 235.934769,88.704094 233.241806,84.579514 
	C232.721741,84.799927 232.201691,85.020340 231.681641,85.240746 
	C232.564194,88.119751 232.948425,91.290749 234.429764,93.818893 
	C237.842819,99.643852 241.483276,105.395584 245.636169,110.703941 
	C248.031998,113.766396 248.395905,116.403862 247.017487,119.734024 
	C245.423264,117.264832 243.883606,114.880150 242.343948,112.495476 
	C241.897171,112.693947 241.450409,112.892418 241.003632,113.090889 
	C241.003632,116.614647 241.003632,120.138405 241.003632,124.566544 
	C238.322113,120.997459 236.042191,117.962898 233.762268,114.928329 
	C233.266785,114.959373 232.771301,114.990417 232.275818,115.021454 
	C231.877426,118.137070 231.479034,121.252686 231.098953,124.225189 
	C227.567627,122.983887 226.709305,119.824661 226.955887,115.718315 
	C227.583862,105.260559 225.741470,95.546860 217.536194,88.055511 
	C217.205276,87.753387 216.794998,87.538170 216.155090,87.099823 
	C216.155090,89.167519 216.155090,90.917603 216.155090,93.374214 
	C213.792068,90.641487 211.836121,88.379517 209.060257,85.169334 
	C209.497925,88.822090 209.786667,91.231796 210.094208,93.798508 
	C207.335648,92.025414 204.914337,90.469101 202.493027,88.912788 
	C202.138687,89.159790 201.784332,89.406792 201.429993,89.653793 
	C202.757645,92.644325 204.085312,95.634857 205.485504,98.788765 
	C201.295456,96.860909 197.453247,95.093094 193.611038,93.325279 
	C193.251083,93.812508 192.891129,94.299736 192.531174,94.786964 
	C194.862930,97.779823 197.194672,100.772690 199.512527,103.747696 
	C194.979736,102.494431 190.346848,101.213486 184.751648,99.666473 
	C186.060806,106.197334 191.183350,107.175423 195.666763,110.139885 
	C191.218521,109.599670 187.827499,109.187851 184.436462,108.776031 
	C184.197037,109.333710 183.957626,109.891396 183.718201,110.449074 
	C192.480698,114.505539 201.243195,118.562004 210.005692,122.618469 
	C209.911087,122.978310 209.816483,123.338142 209.721878,123.697983 
	C207.368668,123.697983 205.015457,123.697983 202.113632,123.697983 
	C202.897446,125.274635 203.422028,126.329872 204.121994,127.737869 
	C201.623215,127.737869 199.435181,127.737869 197.247162,127.737869 
	C197.101089,128.035324 196.955002,128.332764 196.808929,128.630219 
	C199.830811,130.553375 202.852692,132.476547 206.234756,134.628937 
	C200.654236,134.311386 195.651474,134.026718 190.648712,133.742050 
	C194.903030,139.424225 202.174774,138.846176 207.187820,143.391159 
	C200.580917,142.757736 193.974014,142.124313 186.837265,141.440094 
	C188.131409,142.587616 189.237473,143.568359 190.537933,144.721481 
	C189.796036,145.359177 188.836472,146.183975 187.079376,147.694290 
	C194.189987,148.574341 200.314240,149.332321 206.438477,150.090302 
	C206.446808,150.280060 206.455139,150.469818 206.463455,150.659576 
	C200.311707,151.758728 194.159958,152.857864 188.008194,153.957001 
	C187.915558,154.521133 187.822922,155.085266 187.730286,155.649399 
	C190.217072,156.423599 192.703857,157.197800 195.680069,158.124374 
	C193.951263,159.099854 192.525757,159.904190 190.150955,161.244171 
	C193.584854,162.464539 196.245804,163.410217 199.289963,164.492065 
	C197.790161,165.620880 196.425842,166.647736 194.401764,168.171158 
	C199.871552,172.167450 205.328094,168.924927 210.558670,169.043045 
	C207.276306,172.856522 200.610382,174.809555 195.702316,173.752625 
	C188.656952,172.235428 181.569000,170.915939 174.082733,170.436752 
	C174.893509,171.134430 175.704285,171.832108 176.845474,172.814102 
	C173.411499,173.644012 170.135468,174.435745 166.859451,175.227478 
	C166.858047,175.598236 166.856659,175.968994 166.855255,176.339752 
	C168.518906,177.110077 170.182556,177.880402 172.349136,178.883591 
	C169.374863,180.257767 166.694992,181.495911 164.015121,182.734055 
	C164.045486,183.142166 164.075851,183.550262 164.106216,183.958374 
	C166.876984,184.432083 169.647766,184.905777 172.649338,185.418930 
	C169.682053,187.504868 166.666672,189.624619 163.651291,191.744354 
	C163.858932,192.263687 164.066574,192.783020 164.274231,193.302353 
	C168.135803,192.611526 171.997391,191.920685 176.179932,191.172440 
	C172.522964,194.214142 169.068588,197.087341 165.614227,199.960541 
	C166.137955,200.667694 166.661682,201.374847 167.185425,202.082001 
	C169.707886,201.440048 172.230347,200.798096 174.913681,200.115189 
	C173.738419,202.551468 172.613998,204.882370 171.489578,207.213257 
	C171.790100,207.421295 172.090622,207.629349 172.391144,207.837387 
	C174.142776,206.810242 175.894394,205.783081 178.384628,204.322800 
	C177.819061,207.502960 177.356796,210.102295 176.894516,212.701630 
	C177.305069,212.961288 177.715622,213.220947 178.126175,213.480606 
	C179.795532,211.328613 181.464890,209.176620 183.134247,207.024628 
	C183.427536,207.205185 183.720825,207.385757 184.014114,207.566315 
	C183.615341,210.601181 183.216553,213.636047 182.817780,216.670914 
	C183.334961,216.927689 183.852142,217.184464 184.369324,217.441238 
	C187.130371,213.026810 189.891418,208.612396 193.345261,203.090332 
	C193.691406,206.870682 193.945984,209.651077 194.200577,212.431473 
	C194.684784,212.554993 195.168991,212.678513 195.653198,212.802032 
	C197.436523,206.471756 199.228226,200.143814 200.992584,193.808243 
	C201.212128,193.019852 201.383133,192.194611 201.413300,191.380417 
	C201.707748,183.432083 206.156723,179.285919 213.456985,176.844788 
	C218.093262,175.294464 222.208801,172.234711 226.661667,170.064896 
	C228.484711,169.176559 232.063141,167.990524 232.307297,168.411270 
	C233.637985,170.704590 234.625626,173.434875 234.752121,176.061996 
	C234.797379,177.001526 232.228455,178.377960 230.637543,179.030014 
	C224.584015,181.511108 218.347046,183.562775 212.375595,186.217941 
	C209.521683,187.486908 207.109238,189.748779 204.496826,191.560928 
	C204.692642,191.930481 204.888458,192.300034 205.084274,192.669586 
	C208.900726,192.031387 212.717178,191.393204 216.533646,190.755005 
	C216.622650,191.038940 216.711670,191.322876 216.800674,191.606812 
	C214.769531,193.064972 212.738388,194.523148 210.707245,195.981308 
	C210.890350,196.391327 211.073456,196.801346 211.256561,197.211365 
	C214.281158,196.450439 217.305740,195.689514 220.330338,194.928589 
	C220.493500,195.168915 220.656677,195.409225 220.819839,195.649551 
	C218.777725,197.214249 216.568253,198.609970 214.754913,200.405701 
	C213.628479,201.521179 213.102264,203.242783 212.306641,204.692337 
	C214.065216,204.850143 215.889877,205.367569 217.562988,205.060181 
	C219.102051,204.777390 220.478073,203.607178 222.518127,202.951538 
	C223.294052,203.242676 223.477768,203.410187 223.661499,203.577713 
z"/>
<path fill="#030505" opacity="1.000000" stroke="none" 
	d="
M286.523438,127.569626 
	C291.193756,121.224121 294.687958,128.119003 297.709045,127.672432 
	C294.957947,135.134018 292.253326,142.469559 289.548706,149.805115 
	C290.027985,150.134277 290.507263,150.463440 290.986542,150.792603 
	C287.867920,151.350388 284.749268,151.908188 281.690704,152.455246 
	C279.298706,143.156723 276.313629,134.215302 286.523438,127.569626 
z"/>
<path fill="#060909" opacity="1.000000" stroke="none" 
	d="
M206.538712,159.087570 
	C209.149216,158.123764 211.418716,157.264526 213.664032,156.346115 
	C220.698914,153.468567 224.732346,154.511414 229.876923,160.586304 
	C221.446899,166.344666 213.064178,165.947479 204.901871,160.104538 
	C205.141785,159.929108 205.664215,159.547089 206.538712,159.087570 
z"/>
<path fill="#050708" opacity="1.000000" stroke="none" 
	d="
M272.878845,125.822495 
	C274.507172,123.244476 275.961243,120.985321 278.014008,117.796013 
	C275.165619,118.144920 273.649353,118.330658 271.499725,118.593971 
	C273.854553,115.026611 275.960663,111.836075 278.103760,108.589470 
	C287.185638,117.378044 287.273895,117.468636 278.680054,125.841469 
	C275.752441,128.693787 273.684875,133.103668 267.894653,132.943100 
	C269.702393,130.386780 271.203491,128.264069 272.878845,125.822495 
z"/>
<path fill="#050808" opacity="1.000000" stroke="none" 
	d="
M226.000336,147.598785 
	C225.999130,144.147369 225.999130,141.129791 225.999130,137.103806 
	C228.295380,142.721695 236.469788,140.575928 237.142120,147.311584 
	C237.420303,150.098557 236.710190,152.984177 236.449554,155.824921 
	C235.894165,156.106354 235.338791,156.387787 234.783401,156.669220 
	C231.856110,153.790359 228.928818,150.911484 226.000336,147.598785 
z"/>
<path fill="#0D1213" opacity="1.000000" stroke="none" 
	d="
M256.767395,155.749374 
	C260.183472,154.269852 260.264923,156.272186 259.484009,158.127579 
	C258.752136,159.866486 257.274567,161.291580 255.918671,163.135590 
	C254.320053,161.697220 253.040100,160.545547 251.147324,158.842499 
	C253.223770,157.711578 254.834808,156.834122 256.767395,155.749374 
z"/>
<path fill="#0F1416" opacity="1.000000" stroke="none" 
	d="
M247.555450,140.194855 
	C247.876236,142.895279 247.876236,145.344925 247.876236,147.794571 
	C243.079346,142.690002 243.138092,141.584167 247.555450,140.194855 
z"/>
<path fill="#000101" opacity="1.000000" stroke="none" 
	d="
M232.611786,237.288025 
	C232.715271,236.312347 233.044662,235.704346 233.374054,235.096344 
	C233.591537,235.170517 233.809036,235.244690 234.026520,235.318863 
	C233.964203,236.170486 233.901901,237.022110 233.600937,238.107391 
	C233.187424,238.112610 233.012558,237.884155 232.611786,237.288025 
z"/>
<path fill="#000101" opacity="1.000000" stroke="none" 
	d="
M324.464752,202.364288 
	C323.857208,202.055664 323.516754,201.556381 323.176331,201.057083 
	C323.739685,201.104370 324.303040,201.151642 325.050720,201.475586 
	C325.067322,201.892700 324.899597,202.033173 324.464752,202.364288 
z"/>
<path fill="#000101" opacity="1.000000" stroke="none" 
	d="
M222.846756,202.811310 
	C223.243286,202.414963 223.903381,202.282455 224.563492,202.149963 
	C224.410172,202.497314 224.256851,202.844681 223.882507,203.384888 
	C223.477768,203.410187 223.294052,203.242676 222.846756,202.811310 
z"/>
<path fill="#000101" opacity="1.000000" stroke="none" 
	d="
M313.075500,208.910431 
	C312.651031,208.597076 312.408447,208.093903 312.165894,207.590714 
	C312.519836,207.687576 312.873810,207.784454 313.413818,208.101501 
	C313.485779,208.454636 313.371613,208.587631 313.075500,208.910431 
z"/>
<path fill="#2e4d43" opacity="1.000000" stroke="none" 
	d="
M224.407730,234.495544 
	C224.180573,235.137100 223.778061,235.559143 222.713547,236.675308 
	C223.042297,235.221954 223.164505,234.681641 223.568832,234.002411 
	C223.978104,234.001022 224.105255,234.138535 224.407730,234.495544 
z"/>
</svg>