<svg version="1.2" xmlns="http://www.w3.org/2000/svg" viewBox="0 0 1245 1265" width="1245" height="1265">
	<style>
		.s0 { fill: #f5f5f5 } 
		.s1 { fill: #2e4d43 } 
	</style>
	<path id="Forma 1" fill-rule="evenodd" class="s0" d="m607.11 1035.46c-216.92 0-392.26-190.86-392.26-426.99 0-236.13 175.34-427 392.26-427 216.91 0 392.25 190.87 392.25 427 0 236.13-175.34 426.99-392.25 426.99z"/>
	<path id="Veredalogo" class="s1" d="m548.07 523.47c-3.41 4.75-6.8 9.51-11.5 16.07 6.56 1.55 11.56 2.71 16.56 3.86q-0.51 0.58-1.05 1.14c4.88 3.21 9.75 6.39 15.24 10.02q-8.74 16.45-19.39 36.27c-0.99 2.35-1.25 3.56-1.99 6.83 2.39-2.51 3.29-3.45 4.19-4.39q8.83-8.36 17.66-16.72 1.01 0.63 2.02 1.23-13.5 29.61-26.99 59.2 1.86 0.9 3.7 1.77c6.75-13.05 13.49-26.09 21.18-39.02 1.32 0.62 1.73 1.14 2.11 1.65q-7.51 27.01-15.04 54.05 2.15 0.58 4.3 1.16 6.39-22.97 12.8-45.95 0.81 0.07 1.61 0.14c0 4.41-0.06 8.85 0.03 13.27 0.35 15.93 1 31.87 1.09 47.81 0.12 22.03-0.11 44.06-0.31 66.12-0.11 11.18-0.54 22.39-0.83 33.58-1.48 58.92-2.53 117.85-4.66 176.73-1.39 39.01-3.27 78.03-7.15 116.83-1.44 14.16-8 28.29-14.46 41.33-5.8 11.68-26.02 17.51-40.86 13.2-92.66-26.98-173.74-73.29-239.5-144.75-48.19-52.36-85.24-111.42-108.55-179.05-22.44-65.16-31.03-132.29-25.8-200.54 7.55-98.98 42.34-188.3 102.72-267.34 49.14-64.31 109.61-114.87 183.13-149.19 46.67-21.79 95.4-36.78 146.82-42.43 158.02-17.33 292.66 32.81 403.61 144.51 70.88 71.36 115.13 158.29 134.29 257.79 8.79 45.65 11.86 91.6 7.6 137.51-7.78 83.99-34.39 161.92-80.96 232.84-63.14 96.14-149.17 163.22-257.64 200.32-32.14 10.98-66.34 17.75-100.17 21.65-37.03 4.26-63.27-18.02-66.43-59.24-3.61-47.2-3.37-94.72-3.75-142.08-0.87-105.71-1.09-211.4-1.57-317.1-0.02-3.68 0-7.38 0-12.35 6.5 10.78 12.35 20.48 19.3 31.98 1.01-4.41 1.42-6.16 1.71-7.48 5.44 5.87 11.11 11.94 16.76 18.04q1.46-0.96 2.89-1.93c-0.82-4.01-1.65-8.02-2.91-14.07 5.74 3.96 10 6.9 17.33 11.96-1.84-12.86-3.32-22.95-4.75-32.94 3.47 1.34 7.08 2.73 12.64 4.86-1.84-15.69-10.36-25.8-21.36-37.79 9.14 2.08 15.84 3.61 24.49 5.58-2.91-5-4.97-8.56-7.46-12.84 2.8-0.54 5.34-1.04 7.87-1.53q0.42-1.12 0.85-2.24c-10.13-4.84-20.22-9.77-30.42-14.46-9.61-4.44-13.65-21.78-5.26-27.72 3.18-2.25 11.14-0.3 15.48 2.22 10.02 5.78 12.31 0.73 13.81-7.65 1.77-9.7 3.88-19.34 5.96-29.68 5.29-0.24 10.79-0.49 17.02-0.76q1.36-5.69 2.75-11.5c17.17 10.99 19.21 16.32 10.02 33.67-6.52 12.35-14.77 23.8-21.16 38.69 4.62-1.08 9.24-2.15 13.43-3.12 1.12 4.35 2.38 9.24 3.63 14.12q1.7 0.72 3.43 1.42 7.91-11.1 15.92-22.31c5.64 8.23 11.99 17.44 19.99 29.08 0-9.06 0-15.43 0-23.14 6.59 5.83 12.06 10.67 17.55 15.54q1.41-0.74 2.82-1.51c-1.41-5.71-2.82-11.43-3.9-18.42 0.59-1.57 0.86-1.88 1.1-2.17q7.71 5.89 15.45 11.76 1.39-1.01 2.75-2.01c-1.3-3.81-2.6-7.6-4.05-11.84 5.06 1.39 9.95 2.71 18.38 5.02-3.59-6.81-5.63-10.69-7.63-15.64 0.43-1.39 0.81-1.71 1.19-2.02q7.11 0.87 14.24 1.73 1.05-1.3 2.08-2.6c-5.56-5.9-11.14-11.77-17.24-18.18 2.94-1.1 5.83-2.2 9.04-3.39-0.63-0.96-1.01-1.97-1.73-2.53-16.79-13.11-36.45-15.26-56.82-14.86-11.75 0.22-19.16-6.93-21.29-21.09 7.46 2.57 14.41 4.97 22.97 7.93-2.49-5.89-4.35-10.26-6.21-14.64 14.44 9.31 28.85 12.92 46.89 7.51-6.38-4.43-11.36-7.89-19.07-13.24 16.38 0 29.97 0 43.57 0q0.36-1.93 0.7-3.84-11.61-5.04-23.22-10.08-0.07-0.92-0.14-1.86 17.26 0 34.5 0 0.47-2.07 0.94-4.11c-8.56-3.47-17.15-6.94-25.31-10.24 10.81-2.22 22.19-4.57 33.58-6.9q0.22-2.06 0.43-4.1-10.58-3.77-21.19-7.54c5.11-3.34 11.12-7.28 17.13-11.2q-0.56-2.09-1.12-4.19c-10.76 1.09-21.5 2.17-31.23 3.16 6.39-4.69 13.27-9.71 20.13-14.75q-0.58-1.64-1.19-3.25c-7.24 0.8-14.48 1.63-23.04 2.6 3.57-4.35 6.55-7.98 9.51-11.59q-0.72-1.59-1.44-3.18c-12.91 3.87-25.84 7.77-37.79 11.36 2.96-5.2 6.43-11.32 10.29-18.09-5.13-1.54-9.26-2.78-13.45-4.06q14.44-9.19 29-18.44-0.74-2.27-1.47-4.53c-6.15 0.34-12.31 0.67-19.06 1.03 12.29-8.58 24.23-16.92 36.18-25.28q-0.83-2.06-1.64-4.1c-8.54 2.28-17.05 4.57-24.81 6.63 4.91-5.4 10.18-11.23 15.44-17.06q-1.14-2.01-2.26-4.03c-10.42 3.32-20.82 6.63-31.72 10.08 4.58-10.62 15.74-18.85 12.22-32.85-14.28 0.02-18.27 13.87-27.79 21.65 2.64-10 4.95-18.65 7.24-27.33q-2.09-1.25-4.2-2.48c-6.5 8.16-12.97 16.31-19.25 24.23 0-7.69 0-16.1 0-25.74-19.05 13.16-16.72 33.49-21.45 52.03-4.17-6.14-8.14-11.99-13.29-19.64-1.12 5.92-1.86 9.91-2.89 15.33-2.6-1.79-4.4-3.02-6.37-4.37q-11.01 12.98-22.1 26.07-0.76-0.31-1.55-0.63 11.28-30.03 22.53-60.07-1.93-1.14-3.83-2.31c-2.87 2.27-5.74 4.53-9.35 7.38 0-5.51 0-10.45 0-15.38q-1.37-0.58-2.71-1.14c-3.25 5.98-6.48 11.97-10.72 19.77 0-9.46 0-17.24 0-24.99q-1.61-0.27-3.22-0.54c-2.87 13.04-5.74 26.11-9.08 41.22-3.9-18.63-4.42-35.8-16.27-49.9 0 10.76 0 21.55 0 34.07-6.64-11.11-12.27-20.55-17.89-30.01q-1.19 0.41-2.36 0.81c0 5.31 0 10.6 0 17.37-4.3-3.36-7.44-5.83-10.57-8.29q-1.44 0.8-2.85 1.61 7.4 19.7 14.79 39.41-0.65 0.38-1.32 0.74-9.06-13.86-18.11-27.73-1.75 0.74-3.5 1.48c1.97 6.45 2.85 13.56 6.17 19.23 7.64 13.04 15.8 25.96 25.12 37.84 5.36 6.88 6.19 12.77 3.1 20.24-3.59-5.54-7.04-10.88-10.49-16.21q-1.51 0.65-3.01 1.32c0 7.89 0 15.8 0 25.73-6-8-11.12-14.81-16.23-21.6q-1.65 0.09-3.31 0.2c-0.9 6.99-1.8 13.96-2.65 20.64-7.91-2.8-9.84-9.88-9.28-19.07 1.39-23.45-2.73-45.21-21.11-62-0.74-0.7-1.68-1.17-3.1-2.15 0 4.64 0 8.56 0 14.05-5.31-6.12-9.68-11.18-15.91-18.38 0.99 8.18 1.64 13.58 2.31 19.34-6.17-3.96-11.61-7.46-17.04-10.96q-1.18 0.83-2.37 1.66c2.98 6.7 5.96 13.41 9.1 20.49-9.39-4.33-18.02-8.29-26.63-12.24q-1.21 1.64-2.42 3.27 7.84 10.07 15.64 20.09c-10.15-2.83-20.53-5.7-33.08-9.15 2.94 14.64 14.41 16.84 24.48 23.47-9.98-1.21-17.58-2.13-25.17-3.05q-0.81 1.86-1.62 3.74 29.45 13.63 58.93 27.28-0.34 1.21-0.65 2.42c-5.27 0-10.54 0-17.06 0 1.77 3.52 2.94 5.9 4.51 9.06-5.61 0-10.49 0-15.4 0q-0.49 0.99-0.99 1.99c6.77 4.31 13.54 8.63 21.12 13.45-12.51-0.71-23.72-1.34-34.92-1.99 9.52 12.73 25.82 11.45 37.07 21.63-14.82-1.41-29.63-2.85-45.61-4.37 2.89 2.57 5.37 4.77 8.29 7.35-1.66 1.43-3.81 3.27-7.76 6.66 15.94 1.97 29.66 3.67 43.4 5.38q0.02 0.62 0.04 1.27-20.66 3.7-41.35 7.4-0.32 1.88-0.63 3.79c5.58 1.72 11.14 3.47 17.82 5.53-3.88 2.2-7.06 3.99-12.4 7 7.69 2.73 13.68 4.86 20.49 7.28-3.36 2.54-6.41 4.84-10.96 8.25 12.26 8.97 24.5 1.68 36.22 1.95-7.35 8.56-22.3 12.93-33.31 10.56-15.78-3.39-31.67-6.34-48.46-7.42 1.82 1.55 3.64 3.12 6.21 5.31-7.71 1.86-15.04 3.66-22.39 5.43q0 1.23 0 2.48c3.72 1.73 7.44 3.46 12.31 5.7-6.68 3.09-12.69 5.87-18.67 8.63q0.08 1.39 0.2 2.75c6.21 1.06 12.41 2.13 19.14 3.28q-10 7.03-20.17 14.16 0.69 1.75 1.39 3.5c8.67-1.55 17.32-3.09 26.69-4.78-8.2 6.82-15.94 13.27-23.69 19.71q1.77 2.37 3.54 4.75c5.65-1.44 11.3-2.87 17.3-4.39-2.62 5.44-5.15 10.67-7.66 15.89q1.01 0.72 2.02 1.41c3.92-2.31 7.84-4.62 13.42-7.89-1.25 7.13-2.28 12.96-3.34 18.78q1.39 0.88 2.78 1.75 5.61-7.24 11.21-14.48 0.99 0.63 1.97 1.23-1.32 10.2-2.67 20.4 1.73 0.88 3.48 1.73c6.19-9.89 12.37-19.79 20.13-32.17 0.76 8.48 1.34 14.71 1.9 20.94q1.64 0.42 3.25 0.83 6.03-21.27 11.97-42.57c0.49-1.77 0.88-3.63 0.94-5.44 0.68-17.82 10.65-27.1 27.01-32.6 10.38-3.47 19.62-10.33 29.59-15.19 4.08-1.97 12.1-4.64 12.66-3.7 2.99 5.13 5.2 11.25 5.47 17.15 0.12 2.1-5.65 5.2-9.21 6.65-13.58 5.56-27.55 10.16-40.93 16.12-6.41 2.85-11.81 7.91-17.66 11.97q0.65 1.25 1.3 2.49 12.84-2.15 25.66-4.28 0.32 0.94 0.61 1.9-6.84 4.89-13.65 9.8 0.6 1.39 1.23 2.75 10.16-2.55 20.33-5.11 0.56 0.81 1.1 1.62c-4.57 3.49-9.53 6.63-13.61 10.67-2.51 2.48-3.69 6.34-5.46 9.59 3.94 0.36 8.02 1.52 11.76 0.83 3.45-0.63 6.55-3.25 11.12-4.73 1.73 0.65 2.15 1.03 2.56 1.41z"/>
</svg>